<svg width="39" height="31" viewBox="0 0 39 31" fill="none" xmlns="http://www.w3.org/2000/svg">
<path d="M37.6071 0H1.39286C0.622433 0 0 0.629687 0 1.40909V29.5909C0 30.3703 0.622433 31 1.39286 31H37.6071C38.3776 31 39 30.3703 39 29.5909V1.40909C39 0.629687 38.3776 0 37.6071 0ZM35.8661 27.8295H3.13393V26.0726L9.16239 18.8378L15.6958 26.6759L25.8593 14.4872L35.8661 26.4909V27.8295ZM35.8661 22.1139L26.1248 10.4273C25.9855 10.2599 25.733 10.2599 25.5938 10.4273L15.6958 22.2989L9.4279 14.7822C9.28862 14.6149 9.03616 14.6149 8.89688 14.7822L3.13393 21.6956V3.17045H35.8661V22.1139ZM10.4464 13.0341C10.9494 13.0341 11.4475 12.9339 11.9122 12.7391C12.377 12.5444 12.7992 12.259 13.1549 11.8991C13.5106 11.5393 13.7927 11.1121 13.9852 10.642C14.1777 10.1719 14.2768 9.66796 14.2768 9.15909C14.2768 8.65022 14.1777 8.14633 13.9852 7.67619C13.7927 7.20606 13.5106 6.77888 13.1549 6.41905C12.7992 6.05922 12.377 5.77379 11.9122 5.57906C11.4475 5.38432 10.9494 5.28409 10.4464 5.28409C9.43056 5.28409 8.45629 5.69235 7.73796 6.41905C7.01963 7.14576 6.61607 8.13138 6.61607 9.15909C6.61607 10.1868 7.01963 11.1724 7.73796 11.8991C8.45629 12.6258 9.43056 13.0341 10.4464 13.0341ZM10.4464 7.92614C11.1211 7.92614 11.6652 8.47656 11.6652 9.15909C11.6652 9.84162 11.1211 10.392 10.4464 10.392C9.77176 10.392 9.22768 9.84162 9.22768 9.15909C9.22768 8.47656 9.77176 7.92614 10.4464 7.92614Z" fill="black"/>
</svg>
