<svg width="32" height="31" viewBox="0 0 32 31" fill="none" xmlns="http://www.w3.org/2000/svg">
<path d="M14.6313 23.7216L11.4311 26.8958C10.4572 27.8571 9.14391 28.3961 7.77554 28.3961C6.40717 28.3961 5.09387 27.8571 4.12002 26.8958C3.64526 26.4221 3.2686 25.8594 3.0116 25.24C2.7546 24.6205 2.62231 23.9564 2.62231 23.2858C2.62231 22.6151 2.7546 21.9511 3.0116 21.3316C3.2686 20.7122 3.64526 20.1495 4.12002 19.6758L10.2212 13.6266C11.1951 12.6653 12.5084 12.1263 13.8767 12.1263C15.2451 12.1263 16.5584 12.6653 17.5323 13.6266C18.152 14.2423 18.6004 15.0091 18.8332 15.8512C18.9612 15.7455 19.0788 15.6279 19.1844 15.4999L20.8626 13.8348C20.4868 13.0526 19.9809 12.34 19.3665 11.7273C17.9052 10.2814 15.9325 9.47046 13.8767 9.47046C11.821 9.47046 9.84829 10.2814 8.38696 11.7273L2.27275 17.8285C1.55256 18.5432 0.980963 19.3934 0.590893 20.33C0.200824 21.2666 0 22.2712 0 23.2858C0 24.3004 0.200824 25.305 0.590893 26.2416C0.980963 27.1782 1.55256 28.0284 2.27275 28.743C3.73408 30.1889 5.70681 30.9999 7.76253 30.9999C9.81825 30.9999 11.791 30.1889 13.2523 28.743L18.0006 24.0338H17.3501C16.4341 24.0499 15.5199 23.9449 14.6313 23.7216Z" fill="black"/>
<path d="M28.9542 2.25685C27.4928 0.810987 25.5201 0 23.4644 0C21.4086 0 19.4359 0.810987 17.9746 2.25685L13.2263 6.96609H13.8638C14.7865 6.96586 15.7052 7.08835 16.5956 7.33035L19.7958 4.15616C20.7697 3.19487 22.083 2.65588 23.4514 2.65588C24.8197 2.65588 26.133 3.19487 27.1069 4.15616C27.5816 4.62984 27.9583 5.19252 28.2153 5.81197C28.4723 6.43143 28.6046 7.09549 28.6046 7.76615C28.6046 8.4368 28.4723 9.10086 28.2153 9.72032C27.9583 10.3398 27.5816 10.9025 27.1069 11.3761L21.0057 17.4253C20.0318 18.3866 18.7185 18.9256 17.3502 18.9256C15.9818 18.9256 14.6685 18.3866 13.6946 17.4253C13.0749 16.8096 12.6265 16.0428 12.3937 15.2008C12.2635 15.2893 12.1416 15.3894 12.0295 15.5L10.3513 17.1651C10.7271 17.9473 11.233 18.6599 11.8474 19.2726C13.3087 20.7184 15.2814 21.5294 17.3372 21.5294C19.3929 21.5294 21.3656 20.7184 22.8269 19.2726L28.9281 13.2234C29.6468 12.5079 30.217 11.6574 30.6061 10.7209C30.9952 9.7844 31.1954 8.78026 31.1954 7.76615C31.1954 6.75203 30.9952 5.7479 30.6061 4.81139C30.217 3.87488 29.6468 3.02444 28.9281 2.30888L28.9542 2.25685Z" fill="black"/>
</svg>
