<svg width="40" height="40" viewBox="0 0 40 40" fill="none" xmlns="http://www.w3.org/2000/svg">
<path d="M20 20C22.6522 20 25.1957 18.9464 27.0711 17.0711C28.9464 15.1957 30 12.6522 30 10C30 7.34784 28.9464 4.8043 27.0711 2.92893C25.1957 1.05357 22.6522 0 20 0C17.3478 0 14.8043 1.05357 12.9289 2.92893C11.0536 4.8043 10 7.34784 10 10C10 12.6522 11.0536 15.1957 12.9289 17.0711C14.8043 18.9464 17.3478 20 20 20ZM20 11C20 12.7681 21.3865 9.24976 20.1362 10.5C18.886 11.7502 21.7681 11 20 11C18.2319 11 21.3865 11.7502 20.1362 10.5C18.886 9.24976 20 12.7681 20 11C20 9.23189 18.886 11.7502 20.1362 10.5C21.3865 9.24976 18.2319 11 20 11C21.7681 11 18.886 9.24976 20.1362 10.5C21.3865 11.7502 20 9.23189 20 11ZM40 36.6667C40 40 36.6667 40 36.6667 40H3.33333C3.33333 40 0 40 0 36.6667C0 33.3333 3.33333 23.3333 20 23.3333C36.6667 23.3333 40 33.3333 40 36.6667ZM28.5 26C28.4967 25.18 36.1533 33.3667 33.8933 31.1067C31.72 28.9333 27.63 26.6667 20 26.6667C12.3667 26.6667 8.28 28.9333 6.10667 31.1067C3.84667 33.3667 10.0067 25.8467 10 26.6667L28.5 26Z" fill="#D2B4F9"/>
</svg>
