<svg width="196" height="25" viewBox="0 0 196 25" fill="none" xmlns="http://www.w3.org/2000/svg">
<path d="M25 12.5C25 19.4036 19.4036 25 12.5 25C5.59644 25 0 19.4036 0 12.5C0 5.59644 5.59644 0 12.5 0C19.4036 0 25 5.59644 25 12.5Z" fill="#9EEBCF"/>
<path d="M196 12.5C196 19.4036 190.404 25 183.5 25C176.596 25 171 19.4036 171 12.5C171 5.59644 176.596 0 183.5 0C190.404 0 196 5.59644 196 12.5Z" fill="#9EEBCF"/>
<path d="M139 12.5C139 19.4036 133.404 25 126.5 25C119.596 25 114 19.4036 114 12.5C114 5.59644 119.596 0 126.5 0C133.404 0 139 5.59644 139 12.5Z" fill="#9EEBCF"/>
<path d="M82 12.5C82 19.4036 76.4036 25 69.5 25C62.5964 25 57 19.4036 57 12.5C57 5.59644 62.5964 0 69.5 0C76.4036 0 82 5.59644 82 12.5Z" fill="#9EEBCF"/>
<line x1="27" y1="13" x2="55" y2="13" stroke="#535353" stroke-width="2"/>
<line x1="141" y1="13" x2="169" y2="13" stroke="#535353" stroke-width="2"/>
<line x1="84" y1="13" x2="112" y2="13" stroke="#535353" stroke-width="2"/>
<path d="M18.9311 7.3599C19.0428 7.24595 19.1761 7.15543 19.3232 7.09363C19.4703 7.03183 19.6282 7 19.7878 7C19.9473 7 20.1053 7.03183 20.2524 7.09363C20.3995 7.15543 20.5328 7.24595 20.6444 7.3599C21.1124 7.83282 21.119 8.59702 20.6608 9.07812L10.9848 20.5165C10.8749 20.6372 10.7416 20.7341 10.593 20.8015C10.4444 20.8688 10.2836 20.9051 10.1205 20.9082C9.95732 20.9113 9.79528 20.881 9.64424 20.8193C9.49319 20.7576 9.35633 20.6657 9.24202 20.5493L3.35427 14.583C3.1272 14.3514 3 14.04 3 13.7157C3 13.3913 3.1272 13.0799 3.35427 12.8484C3.46594 12.7344 3.59923 12.6439 3.74633 12.5821C3.89342 12.5203 4.05137 12.4885 4.21092 12.4885C4.37047 12.4885 4.52842 12.5203 4.67551 12.5821C4.82261 12.6439 4.9559 12.7344 5.06757 12.8484L10.0619 17.9098L18.8984 7.3959C18.9086 7.38325 18.9195 7.37123 18.9311 7.3599Z" fill="#535353"/>
<path d="M75.9311 7.3599C76.0428 7.24595 76.1761 7.15543 76.3232 7.09363C76.4703 7.03183 76.6282 7 76.7878 7C76.9473 7 77.1053 7.03183 77.2524 7.09363C77.3995 7.15543 77.5328 7.24595 77.6444 7.3599C78.1124 7.83282 78.119 8.59702 77.6608 9.07812L67.9848 20.5165C67.8749 20.6372 67.7416 20.7341 67.593 20.8015C67.4444 20.8688 67.2836 20.9051 67.1205 20.9082C66.9573 20.9113 66.7953 20.881 66.6442 20.8193C66.4932 20.7576 66.3563 20.6657 66.242 20.5493L60.3543 14.583C60.1272 14.3514 60 14.04 60 13.7157C60 13.3913 60.1272 13.0799 60.3543 12.8484C60.4659 12.7344 60.5992 12.6439 60.7463 12.5821C60.8934 12.5203 61.0514 12.4885 61.2109 12.4885C61.3705 12.4885 61.5284 12.5203 61.6755 12.5821C61.8226 12.6439 61.9559 12.7344 62.0676 12.8484L67.0619 17.9098L75.8984 7.3959C75.9086 7.38325 75.9195 7.37123 75.9311 7.3599Z" fill="#535353"/>
<path d="M132.931 7.3599C133.043 7.24595 133.176 7.15543 133.323 7.09363C133.47 7.03183 133.628 7 133.788 7C133.947 7 134.105 7.03183 134.252 7.09363C134.399 7.15543 134.533 7.24595 134.644 7.3599C135.112 7.83282 135.119 8.59702 134.661 9.07812L124.985 20.5165C124.875 20.6372 124.742 20.7341 124.593 20.8015C124.444 20.8688 124.284 20.9051 124.12 20.9082C123.957 20.9113 123.795 20.881 123.644 20.8193C123.493 20.7576 123.356 20.6657 123.242 20.5493L117.354 14.583C117.127 14.3514 117 14.04 117 13.7157C117 13.3913 117.127 13.0799 117.354 12.8484C117.466 12.7344 117.599 12.6439 117.746 12.5821C117.893 12.5203 118.051 12.4885 118.211 12.4885C118.37 12.4885 118.528 12.5203 118.676 12.5821C118.823 12.6439 118.956 12.7344 119.068 12.8484L124.062 17.9098L132.898 7.3959C132.909 7.38325 132.92 7.37123 132.931 7.3599Z" fill="#535353"/>
</svg>
