<svg width="196" height="25" viewBox="0 0 196 25" fill="none" xmlns="http://www.w3.org/2000/svg">
<path d="M25 12.5C25 19.4036 19.4036 25 12.5 25C5.59644 25 0 19.4036 0 12.5C0 5.59644 5.59644 0 12.5 0C19.4036 0 25 5.59644 25 12.5Z" fill="#9EEBCF"/>
<path d="M196 12.5C196 19.4036 190.404 25 183.5 25C176.596 25 171 19.4036 171 12.5C171 5.59644 176.596 0 183.5 0C190.404 0 196 5.59644 196 12.5Z" fill="#BEBEBE"/>
<path d="M139 12.5C139 19.4036 133.404 25 126.5 25C119.596 25 114 19.4036 114 12.5C114 5.59644 119.596 0 126.5 0C133.404 0 139 5.59644 139 12.5Z" fill="#BEBEBE"/>
<path d="M82 12.5C82 19.4036 76.4036 25 69.5 25C62.5964 25 57 19.4036 57 12.5C57 5.59644 62.5964 0 69.5 0C76.4036 0 82 5.59644 82 12.5Z" fill="#BEBEBE"/>
<line x1="27" y1="13" x2="55" y2="13" stroke="#535353" stroke-width="2"/>
<line x1="141" y1="13" x2="169" y2="13" stroke="#535353" stroke-width="2"/>
<line x1="84" y1="13" x2="112" y2="13" stroke="#535353" stroke-width="2"/>
</svg>
