<svg width="204" height="33" viewBox="0 0 204 33" fill="none" xmlns="http://www.w3.org/2000/svg">
<g filter="url(#filter0_d_476_505)">
<path d="M29 12.5C29 19.4036 23.4036 25 16.5 25C9.59644 25 4 19.4036 4 12.5C4 5.59644 9.59644 0 16.5 0C23.4036 0 29 5.59644 29 12.5Z" fill="#9EEBCF"/>
<path d="M200 12.5C200 19.4036 194.404 25 187.5 25C180.596 25 175 19.4036 175 12.5C175 5.59644 180.596 0 187.5 0C194.404 0 200 5.59644 200 12.5Z" fill="#BEBEBE"/>
<path d="M143 12.5C143 19.4036 137.404 25 130.5 25C123.596 25 118 19.4036 118 12.5C118 5.59644 123.596 0 130.5 0C137.404 0 143 5.59644 143 12.5Z" fill="#9EEBCF"/>
<path d="M86 12.5C86 19.4036 80.4036 25 73.5 25C66.5964 25 61 19.4036 61 12.5C61 5.59644 66.5964 0 73.5 0C80.4036 0 86 5.59644 86 12.5Z" fill="#9EEBCF"/>
<line x1="31" y1="13" x2="59" y2="13" stroke="#535353" stroke-width="2"/>
<line x1="145" y1="13" x2="173" y2="13" stroke="#535353" stroke-width="2"/>
<line x1="88" y1="13" x2="116" y2="13" stroke="#535353" stroke-width="2"/>
</g>
<path d="M22.9311 7.3599C23.0428 7.24595 23.1761 7.15543 23.3232 7.09363C23.4703 7.03183 23.6282 7 23.7878 7C23.9473 7 24.1053 7.03183 24.2524 7.09363C24.3995 7.15543 24.5328 7.24595 24.6444 7.3599C25.1124 7.83282 25.119 8.59702 24.6608 9.07812L14.9848 20.5165C14.8749 20.6372 14.7416 20.7341 14.593 20.8015C14.4444 20.8688 14.2836 20.9051 14.1205 20.9082C13.9573 20.9113 13.7953 20.881 13.6442 20.8193C13.4932 20.7576 13.3563 20.6657 13.242 20.5493L7.35427 14.583C7.1272 14.3514 7 14.04 7 13.7157C7 13.3913 7.1272 13.0799 7.35427 12.8484C7.46594 12.7344 7.59923 12.6439 7.74633 12.5821C7.89342 12.5203 8.05137 12.4885 8.21092 12.4885C8.37047 12.4885 8.52842 12.5203 8.67551 12.5821C8.82261 12.6439 8.9559 12.7344 9.06757 12.8484L14.0619 17.9098L22.8984 7.3959C22.9086 7.38325 22.9195 7.37123 22.9311 7.3599Z" fill="#535353"/>
<path d="M79.9311 7.3599C80.0428 7.24595 80.1761 7.15543 80.3232 7.09363C80.4703 7.03183 80.6282 7 80.7878 7C80.9473 7 81.1053 7.03183 81.2524 7.09363C81.3995 7.15543 81.5328 7.24595 81.6444 7.3599C82.1124 7.83282 82.119 8.59702 81.6608 9.07812L71.9848 20.5165C71.8749 20.6372 71.7416 20.7341 71.593 20.8015C71.4444 20.8688 71.2836 20.9051 71.1205 20.9082C70.9573 20.9113 70.7953 20.881 70.6442 20.8193C70.4932 20.7576 70.3563 20.6657 70.242 20.5493L64.3543 14.583C64.1272 14.3514 64 14.04 64 13.7157C64 13.3913 64.1272 13.0799 64.3543 12.8484C64.4659 12.7344 64.5992 12.6439 64.7463 12.5821C64.8934 12.5203 65.0514 12.4885 65.2109 12.4885C65.3705 12.4885 65.5284 12.5203 65.6755 12.5821C65.8226 12.6439 65.9559 12.7344 66.0676 12.8484L71.0619 17.9098L79.8984 7.3959C79.9086 7.38325 79.9195 7.37123 79.9311 7.3599Z" fill="#535353"/>
<defs>
<filter id="filter0_d_476_505" x="0" y="0" width="204" height="33" filterUnits="userSpaceOnUse" color-interpolation-filters="sRGB">
<feFlood flood-opacity="0" result="BackgroundImageFix"/>
<feColorMatrix in="SourceAlpha" type="matrix" values="0 0 0 0 0 0 0 0 0 0 0 0 0 0 0 0 0 0 127 0" result="hardAlpha"/>
<feOffset dy="4"/>
<feGaussianBlur stdDeviation="2"/>
<feComposite in2="hardAlpha" operator="out"/>
<feColorMatrix type="matrix" values="0 0 0 0 0 0 0 0 0 0 0 0 0 0 0 0 0 0 0.25 0"/>
<feBlend mode="normal" in2="BackgroundImageFix" result="effect1_dropShadow_476_505"/>
<feBlend mode="normal" in="SourceGraphic" in2="effect1_dropShadow_476_505" result="shape"/>
</filter>
</defs>
</svg>
