<svg width="196" height="25" viewBox="0 0 196 25" fill="none" xmlns="http://www.w3.org/2000/svg">
<path d="M25 12.5C25 19.4036 19.4036 25 12.5 25C5.59644 25 0 19.4036 0 12.5C0 5.59644 5.59644 0 12.5 0C19.4036 0 25 5.59644 25 12.5Z" fill="#9EEBCF"/>
<path d="M196 12.5C196 19.4036 190.404 25 183.5 25C176.596 25 171 19.4036 171 12.5C171 5.59644 176.596 0 183.5 0C190.404 0 196 5.59644 196 12.5Z" fill="#BEBEBE"/>
<path d="M139 12.5C139 19.4036 133.404 25 126.5 25C119.596 25 114 19.4036 114 12.5C114 5.59644 119.596 0 126.5 0C133.404 0 139 5.59644 139 12.5Z" fill="#BEBEBE"/>
<path d="M82 12.5C82 19.4036 76.4036 25 69.5 25C62.5964 25 57 19.4036 57 12.5C57 5.59644 62.5964 0 69.5 0C76.4036 0 82 5.59644 82 12.5Z" fill="#9EEBCF"/>
<line x1="27" y1="13" x2="55" y2="13" stroke="#535353" stroke-width="2"/>
<line x1="141" y1="13" x2="169" y2="13" stroke="#535353" stroke-width="2"/>
<line x1="84" y1="13" x2="112" y2="13" stroke="#535353" stroke-width="2"/>
<path d="M18.9311 7.3599C19.0428 7.24595 19.1761 7.15543 19.3232 7.09363C19.4703 7.03183 19.6282 7 19.7878 7C19.9473 7 20.1053 7.03183 20.2524 7.09363C20.3995 7.15543 20.5328 7.24595 20.6444 7.3599C21.1124 7.83282 21.119 8.59702 20.6608 9.07812L10.9848 20.5165C10.8749 20.6372 10.7416 20.7341 10.593 20.8015C10.4444 20.8688 10.2836 20.9051 10.1205 20.9082C9.95732 20.9112 9.79528 20.881 9.64424 20.8193C9.49319 20.7576 9.35633 20.6657 9.24202 20.5493L3.35427 14.583C3.1272 14.3514 3 14.04 3 13.7157C3 13.3913 3.1272 13.0799 3.35427 12.8484C3.46594 12.7344 3.59923 12.6439 3.74633 12.5821C3.89342 12.5203 4.05137 12.4885 4.21092 12.4885C4.37047 12.4885 4.52842 12.5203 4.67551 12.5821C4.82261 12.6439 4.9559 12.7344 5.06757 12.8484L10.0619 17.9098L18.8984 7.3959C18.9086 7.38325 18.9195 7.37123 18.9311 7.3599Z" fill="#535353"/>
</svg>
