<svg width="30" height="30" viewBox="0 0 30 30" fill="none" xmlns="http://www.w3.org/2000/svg">
<path d="M0 3.92339C0 2.88284 0.395088 1.88491 1.09835 1.14913C1.80161 0.413356 2.75544 0 3.75 0L26.25 0C27.2446 0 28.1984 0.413356 28.9016 1.14913C29.6049 1.88491 30 2.88284 30 3.92339V19.617C30 20.6575 29.6049 21.6554 28.9016 22.3912C28.1984 23.127 27.2446 23.5403 26.25 23.5403H8.27625C7.77901 23.5405 7.30217 23.7472 6.95063 24.1151L1.60125 29.7118C1.47024 29.8492 1.30322 29.9429 1.12132 29.981C0.939414 30.019 0.750809 29.9998 0.579374 29.9256C0.407938 29.8515 0.261379 29.7258 0.158245 29.5645C0.0551111 29.4031 3.94029e-05 29.2134 0 29.0194L0 3.92339ZM9.375 11.7702C9.375 11.2499 9.17746 10.7509 8.82582 10.383C8.47419 10.0152 7.99728 9.80848 7.5 9.80848C7.00272 9.80848 6.52581 10.0152 6.17417 10.383C5.82254 10.7509 5.625 11.2499 5.625 11.7702C5.625 12.2904 5.82254 12.7894 6.17417 13.1573C6.52581 13.5252 7.00272 13.7319 7.5 13.7319C7.99728 13.7319 8.47419 13.5252 8.82582 13.1573C9.17746 12.7894 9.375 12.2904 9.375 11.7702ZM16.875 11.7702C16.875 11.2499 16.6775 10.7509 16.3258 10.383C15.9742 10.0152 15.4973 9.80848 15 9.80848C14.5027 9.80848 14.0258 10.0152 13.6742 10.383C13.3225 10.7509 13.125 11.2499 13.125 11.7702C13.125 12.2904 13.3225 12.7894 13.6742 13.1573C14.0258 13.5252 14.5027 13.7319 15 13.7319C15.4973 13.7319 15.9742 13.5252 16.3258 13.1573C16.6775 12.7894 16.875 12.2904 16.875 11.7702ZM22.5 13.7319C22.9973 13.7319 23.4742 13.5252 23.8258 13.1573C24.1775 12.7894 24.375 12.2904 24.375 11.7702C24.375 11.2499 24.1775 10.7509 23.8258 10.383C23.4742 10.0152 22.9973 9.80848 22.5 9.80848C22.0027 9.80848 21.5258 10.0152 21.1742 10.383C20.8225 10.7509 20.625 11.2499 20.625 11.7702C20.625 12.2904 20.8225 12.7894 21.1742 13.1573C21.5258 13.5252 22.0027 13.7319 22.5 13.7319V13.7319Z" fill="#E5E5E5"/>
</svg>
