<svg width="33" height="32" viewBox="0 0 33 32" fill="none" xmlns="http://www.w3.org/2000/svg">
<path d="M12.7412 25.796C15.7671 26.1428 18.8114 25.3891 21.3214 23.6817L28.4438 30.8041C28.8891 31.2497 29.4932 31.5002 30.1232 31.5004C30.7532 31.5006 31.3575 31.2506 31.8031 30.8052C32.2487 30.3599 32.4992 29.7558 32.4994 29.1258C32.4996 28.4959 32.2496 27.8916 31.8043 27.446L31.8042 27.4458L24.6799 20.3216C26.3867 17.8099 27.1388 14.764 26.7898 11.7374C26.4234 8.56093 24.8712 5.63994 22.4437 3.55878C20.0162 1.47762 16.8924 0.389781 13.6973 0.512895C10.5022 0.636009 7.47134 1.961 5.21117 4.22278C2.95101 6.48456 1.62819 9.51633 1.50736 12.7115C1.38653 15.9068 2.47661 19.0298 4.5595 21.4558C6.6424 23.8818 9.5645 25.4319 12.7412 25.796ZM24 13.1875C24 14.4761 23.7462 15.7521 23.253 16.9426C22.7599 18.1331 22.0371 19.2148 21.126 20.126C20.2148 21.0372 19.1331 21.7599 17.9426 22.2531C16.752 22.7462 15.4761 23 14.1875 23C12.8989 23 11.6229 22.7462 10.4324 22.2531C9.24189 21.7599 8.16016 21.0372 7.24899 20.126C6.33781 19.2148 5.61503 18.1331 5.12191 16.9426C4.62878 15.7521 4.37497 14.4761 4.37497 13.1875C4.37497 10.5851 5.40879 8.08922 7.24899 6.24902C9.08919 4.40882 11.585 3.37501 14.1875 3.37501C16.7899 3.37501 19.2858 4.40882 21.126 6.24902C22.9662 8.08922 24 10.5851 24 13.1875Z" fill="#E5E5E5" stroke="#E5E5E5"/>
</svg>
