<svg width="29" height="7" viewBox="0 0 29 7" fill="none" xmlns="http://www.w3.org/2000/svg">
<path d="M3.28125 6.5625C2.41101 6.5625 1.57641 6.2168 0.961056 5.60144C0.345702 4.98609 0 4.15149 0 3.28125C0 2.41101 0.345702 1.57641 0.961056 0.961055C1.57641 0.345702 2.41101 0 3.28125 0C4.15149 0 4.98609 0.345702 5.60144 0.961055C6.2168 1.57641 6.5625 2.41101 6.5625 3.28125C6.5625 4.15149 6.2168 4.98609 5.60144 5.60144C4.98609 6.2168 4.15149 6.5625 3.28125 6.5625ZM14.2188 6.5625C13.3485 6.5625 12.5139 6.2168 11.8986 5.60144C11.2832 4.98609 10.9375 4.15149 10.9375 3.28125C10.9375 2.41101 11.2832 1.57641 11.8986 0.961055C12.5139 0.345702 13.3485 0 14.2188 0C15.089 0 15.9236 0.345702 16.5389 0.961055C17.1543 1.57641 17.5 2.41101 17.5 3.28125C17.5 4.15149 17.1543 4.98609 16.5389 5.60144C15.9236 6.2168 15.089 6.5625 14.2188 6.5625ZM25.1562 6.5625C24.286 6.5625 23.4514 6.2168 22.8361 5.60144C22.2207 4.98609 21.875 4.15149 21.875 3.28125C21.875 2.41101 22.2207 1.57641 22.8361 0.961055C23.4514 0.345702 24.286 0 25.1562 0C26.0265 0 26.8611 0.345702 27.4764 0.961055C28.0918 1.57641 28.4375 2.41101 28.4375 3.28125C28.4375 4.15149 28.0918 4.98609 27.4764 5.60144C26.8611 6.2168 26.0265 6.5625 25.1562 6.5625Z" fill="#535353"/>
</svg>
