<svg width="30" height="30" viewBox="0 0 30 30" fill="none" xmlns="http://www.w3.org/2000/svg">
<g clip-path="url(#clip0_346_2470)">
<path d="M26.25 1.9617C26.7473 1.9617 27.2242 2.16837 27.5758 2.53626C27.9275 2.90415 28.125 3.40312 28.125 3.92339V19.617C28.125 20.1372 27.9275 20.6362 27.5758 21.0041C27.2242 21.372 26.7473 21.5786 26.25 21.5786H8.27625C7.28177 21.5789 6.3281 21.9924 5.625 22.7282L1.875 26.6516V3.92339C1.875 3.40312 2.07254 2.90415 2.42417 2.53626C2.77581 2.16837 3.25272 1.9617 3.75 1.9617H26.25ZM3.75 0C2.75544 0 1.80161 0.413356 1.09835 1.14913C0.395088 1.88491 0 2.88284 0 3.92339L0 29.0194C3.94029e-05 29.2134 0.0551111 29.4031 0.158245 29.5645C0.261379 29.7258 0.407938 29.8515 0.579374 29.9256C0.750809 29.9998 0.939414 30.019 1.12132 29.981C1.30322 29.9429 1.47024 29.8492 1.60125 29.7118L6.95062 24.1151C7.30217 23.7472 7.77901 23.5405 8.27625 23.5403H26.25C27.2446 23.5403 28.1984 23.127 28.9016 22.3912C29.6049 21.6554 30 20.6575 30 19.617V3.92339C30 2.88284 29.6049 1.88491 28.9016 1.14913C28.1984 0.413356 27.2446 0 26.25 0L3.75 0Z" fill="#E5E5E5"/>
<path d="M9.375 11.25C9.375 11.7473 9.17746 12.2242 8.82582 12.5758C8.47419 12.9275 7.99728 13.125 7.5 13.125C7.00272 13.125 6.52581 12.9275 6.17417 12.5758C5.82254 12.2242 5.625 11.7473 5.625 11.25C5.625 10.7527 5.82254 10.2758 6.17417 9.92418C6.52581 9.57254 7.00272 9.375 7.5 9.375C7.99728 9.375 8.47419 9.57254 8.82582 9.92418C9.17746 10.2758 9.375 10.7527 9.375 11.25ZM16.875 11.25C16.875 11.7473 16.6775 12.2242 16.3258 12.5758C15.9742 12.9275 15.4973 13.125 15 13.125C14.5027 13.125 14.0258 12.9275 13.6742 12.5758C13.3225 12.2242 13.125 11.7473 13.125 11.25C13.125 10.7527 13.3225 10.2758 13.6742 9.92418C14.0258 9.57254 14.5027 9.375 15 9.375C15.4973 9.375 15.9742 9.57254 16.3258 9.92418C16.6775 10.2758 16.875 10.7527 16.875 11.25ZM24.375 11.25C24.375 11.7473 24.1775 12.2242 23.8258 12.5758C23.4742 12.9275 22.9973 13.125 22.5 13.125C22.0027 13.125 21.5258 12.9275 21.1742 12.5758C20.8225 12.2242 20.625 11.7473 20.625 11.25C20.625 10.7527 20.8225 10.2758 21.1742 9.92418C21.5258 9.57254 22.0027 9.375 22.5 9.375C22.9973 9.375 23.4742 9.57254 23.8258 9.92418C24.1775 10.2758 24.375 10.7527 24.375 11.25Z" fill="#E5E5E5"/>
</g>
<defs>
<clipPath id="clip0_346_2470">
<rect width="30" height="30" fill="white"/>
</clipPath>
</defs>
</svg>
