<svg width="35" height="35" viewBox="0 0 35 35" fill="none" xmlns="http://www.w3.org/2000/svg">
<g clip-path="url(#clip0_157_291)">
<path d="M30.625 2.1875C31.2052 2.1875 31.7616 2.41797 32.1718 2.8282C32.582 3.23844 32.8125 3.79484 32.8125 4.375V21.875C32.8125 22.4552 32.582 23.0116 32.1718 23.4218C31.7616 23.832 31.2052 24.0625 30.625 24.0625H9.65563C8.4954 24.0627 7.38278 24.5238 6.5625 25.3444L2.1875 29.7194V4.375C2.1875 3.79484 2.41797 3.23844 2.8282 2.8282C3.23844 2.41797 3.79484 2.1875 4.375 2.1875H30.625ZM4.375 0C3.21468 0 2.10188 0.460936 1.28141 1.28141C0.460936 2.10188 0 3.21468 0 4.375L0 32.3597C4.597e-05 32.5761 0.0642963 32.7877 0.184619 32.9675C0.304942 33.1474 0.475928 33.2876 0.675936 33.3703C0.875944 33.4529 1.09598 33.4744 1.3082 33.432C1.52042 33.3895 1.71529 33.2851 1.86812 33.1319L8.10906 26.8909C8.5192 26.4807 9.07551 26.2501 9.65563 26.25H30.625C31.7853 26.25 32.8981 25.7891 33.7186 24.9686C34.5391 24.1481 35 23.0353 35 21.875V4.375C35 3.21468 34.5391 2.10188 33.7186 1.28141C32.8981 0.460936 31.7853 0 30.625 0L4.375 0Z" fill="#535353"/>
</g>
<defs>
<clipPath id="clip0_157_291">
<rect width="35" height="35" fill="white"/>
</clipPath>
</defs>
</svg>
