<svg width="30" height="30" viewBox="0 0 30 30" fill="none" xmlns="http://www.w3.org/2000/svg">
<path d="M15.4362 0.314752C15.3367 0.21498 15.2185 0.135822 15.0883 0.0818117C14.9581 0.0278014 14.8186 0 14.6777 0C14.5368 0 14.3972 0.0278014 14.2671 0.0818117C14.1369 0.135822 14.0187 0.21498 13.9192 0.314752L1.06284 13.1711C0.963413 13.2708 0.884608 13.389 0.830929 13.5192C0.77725 13.6494 0.74975 13.7888 0.750002 13.9296V28.9286C0.750002 29.2128 0.862877 29.4853 1.0638 29.6862C1.26471 29.8871 1.53722 30 1.82136 30H11.4636C11.7477 30 12.0203 29.8871 12.2212 29.6862C12.4221 29.4853 12.535 29.2128 12.535 28.9286V20.3578H16.8204V28.9286C16.8204 29.2128 16.9333 29.4853 17.1342 29.6862C17.3351 29.8871 17.6076 30 17.8918 30H27.534C27.8181 30 28.0907 29.8871 28.2916 29.6862C28.4925 29.4853 28.6054 29.2128 28.6054 28.9286V13.9296C28.6056 13.7888 28.5781 13.6494 28.5244 13.5192C28.4708 13.389 28.392 13.2708 28.2925 13.1711L25.3913 10.272V3.216C25.3913 2.93185 25.2784 2.65935 25.0775 2.45843C24.8766 2.25751 24.6041 2.14464 24.3199 2.14464H22.1772C21.8931 2.14464 21.6206 2.25751 21.4196 2.45843C21.2187 2.65935 21.1058 2.93185 21.1058 3.216V5.98653L15.4362 0.314752ZM2.89272 27.8573V14.3731L14.6777 2.58818L26.4626 14.3731V27.8573H18.9631V19.2864C18.9631 19.0023 18.8503 18.7298 18.6493 18.5288C18.4484 18.3279 18.1759 18.215 17.8918 18.215H11.4636C11.1795 18.215 10.907 18.3279 10.706 18.5288C10.5051 18.7298 10.3922 19.0023 10.3922 19.2864V27.8573H2.89272Z" fill="#E5E5E5"/>
</svg>
