<svg width="28" height="30" viewBox="0 0 28 30" fill="none" xmlns="http://www.w3.org/2000/svg">
<path d="M10.7154 28.9286V21.4184C10.7154 20.8934 11.2512 20.3578 11.7869 20.3578H16.0731C16.6088 20.3578 17.1446 20.8934 17.1446 21.4291V28.9286C17.1446 29.2128 17.2575 29.4853 17.4585 29.6862C17.6594 29.8871 17.932 30 18.2162 30H26.7885C27.0726 30 27.3452 29.8871 27.5462 29.6862C27.7471 29.4853 27.86 29.2128 27.86 28.9286V13.9296C27.8603 13.7888 27.8327 13.6494 27.7791 13.5192C27.7254 13.389 27.6466 13.2708 27.5471 13.1711L24.6454 10.272V3.216C24.6454 2.93185 24.5325 2.65935 24.3315 2.45843C24.1306 2.25751 23.858 2.14464 23.5738 2.14464H21.4308C21.1466 2.14464 20.874 2.25751 20.6731 2.45843C20.4721 2.65935 20.3592 2.93185 20.3592 3.216V5.98653L14.6886 0.314752C14.5891 0.21498 14.4709 0.135822 14.3407 0.0818117C14.2105 0.0278014 14.0709 0 13.93 0C13.7891 0 13.6495 0.0278014 13.5193 0.0818117C13.3891 0.135822 13.2709 0.21498 13.1714 0.314752L0.312891 13.1711C0.213448 13.2708 0.13463 13.389 0.0809422 13.5192C0.0272545 13.6494 -0.000249775 13.7888 1.70909e-06 13.9296V28.9286C1.70909e-06 29.2128 0.112896 29.4853 0.313848 29.6862C0.5148 29.8871 0.78735 30 1.07154 30H9.64385C9.92804 30 10.2006 29.8871 10.4015 29.6862C10.6025 29.4853 10.7154 29.2128 10.7154 28.9286Z" fill="#E5E5E5"/>
</svg>
