<svg width="40" height="31" viewBox="0 0 40 31" fill="none" xmlns="http://www.w3.org/2000/svg">
<path d="M13.3864 22.551H8.27841V17.4431C8.27841 17.2493 8.11989 17.0908 7.92614 17.0908H5.8125C5.61875 17.0908 5.46023 17.2493 5.46023 17.4431V22.551H0.352273C0.158523 22.551 0 22.7096 0 22.9033V25.017C0 25.2107 0.158523 25.3692 0.352273 25.3692H5.46023V30.4772C5.46023 30.6709 5.61875 30.8295 5.8125 30.8295H7.92614C8.11989 30.8295 8.27841 30.6709 8.27841 30.4772V25.3692H13.3864C13.5801 25.3692 13.7386 25.2107 13.7386 25.017V22.9033C13.7386 22.7096 13.5801 22.551 13.3864 22.551Z" fill="black"/>
<path d="M37.3409 6.26605L31.7045 9.51136V2.81818C31.7045 1.26378 30.4408 0 28.8864 0H2.81818C1.26378 0 0 1.26378 0 2.81818V15.1136H3.17045V3.17045H28.5341V27.8295H15.8409V31H28.8864C30.4408 31 31.7045 29.7362 31.7045 28.1818V21.4886L37.3409 24.7339C38.2788 25.2756 39.4545 24.5974 39.4545 23.5186V7.4858C39.4545 6.40256 38.2788 5.72443 37.3409 6.26605ZM36.2841 20.4759L31.7045 17.8426V13.1618L36.2841 10.5241V20.4759Z" fill="black"/>
<path d="M11.2727 8.80671C11.4665 8.80671 11.625 8.64818 11.625 8.45443V6.3408C11.625 6.14705 11.4665 5.98853 11.2727 5.98853H6.34091C6.14716 5.98853 5.98864 6.14705 5.98864 6.3408V8.45443C5.98864 8.64818 6.14716 8.80671 6.34091 8.80671H11.2727Z" fill="black"/>
</svg>
