<svg width="14" height="14" viewBox="0 0 14 14" fill="none" xmlns="http://www.w3.org/2000/svg">
<path d="M13.3864 5.55105H8.27841V0.443093C8.27841 0.249343 8.11989 0.0908203 7.92614 0.0908203H5.8125C5.61875 0.0908203 5.46023 0.249343 5.46023 0.443093V5.55105H0.352273C0.158523 5.55105 0 5.70957 0 5.90332V8.01696C0 8.21071 0.158523 8.36923 0.352273 8.36923H5.46023V13.4772C5.46023 13.6709 5.61875 13.8295 5.8125 13.8295H7.92614C8.11989 13.8295 8.27841 13.6709 8.27841 13.4772V8.36923H13.3864C13.5801 8.36923 13.7386 8.21071 13.7386 8.01696V5.90332C13.7386 5.70957 13.5801 5.55105 13.3864 5.55105Z" fill="black"/>
</svg>
