<svg width="35" height="35" viewBox="0 0 35 35" fill="none" xmlns="http://www.w3.org/2000/svg">
<g clip-path="url(#clip0_348_1390)">
<path d="M29.5312 2.18752C28.661 2.18752 27.8264 2.53322 27.2111 3.14857C26.5957 3.76392 26.25 4.59852 26.25 5.46876C26.25 6.33901 26.5957 7.1736 27.2111 7.78896C27.8264 8.40431 28.661 8.75001 29.5312 8.75001C30.4015 8.75001 31.2361 8.40431 31.8514 7.78896C32.4668 7.1736 32.8125 6.33901 32.8125 5.46876C32.8125 4.59852 32.4668 3.76392 31.8514 3.14857C31.2361 2.53322 30.4015 2.18752 29.5312 2.18752ZM24.0625 5.46876C24.0623 4.18565 24.5134 2.94333 25.3366 1.95916C26.1599 0.974998 27.3031 0.311654 28.566 0.0851905C29.829 -0.141273 31.1314 0.0835635 32.2453 0.720364C33.3593 1.35717 34.2139 2.36538 34.6595 3.56861C35.1052 4.77184 35.1136 6.09347 34.6832 7.30227C34.2529 8.51106 33.4112 9.53005 32.3054 10.181C31.1997 10.8319 29.9002 11.0732 28.6345 10.8628C27.3687 10.6524 26.2173 10.0036 25.3816 9.03001L10.6859 15.855C11.0238 16.9257 11.0238 18.0744 10.6859 19.145L25.3816 25.97C26.265 24.9426 27.4983 24.2797 28.8426 24.1099C30.1869 23.94 31.5464 24.2752 32.6576 25.0506C33.7688 25.8259 34.5526 26.9862 34.8571 28.3065C35.1616 29.6268 34.9651 31.0132 34.3057 32.1969C33.6463 33.3806 32.5709 34.2773 31.288 34.7134C30.0051 35.1494 28.606 35.0936 27.3619 34.5568C26.1177 34.0201 25.1172 33.0406 24.5541 31.8082C23.991 30.5757 23.9054 29.1782 24.3141 27.8863L9.61844 21.0613C8.89095 21.9091 7.92127 22.5137 6.83983 22.7939C5.75839 23.0741 4.61708 23.0164 3.56943 22.6286C2.52177 22.2407 1.61804 21.5413 0.979797 20.6244C0.341554 19.7075 -0.000579834 18.6172 -0.000579834 17.5C-0.000579834 16.3829 0.341554 15.2925 0.979797 14.3756C1.61804 13.4588 2.52177 12.7593 3.56943 12.3715C4.61708 11.9836 5.75839 11.9259 6.83983 12.2061C7.92127 12.4863 8.89095 13.091 9.61844 13.9388L24.3141 7.11376C24.1468 6.58148 24.0619 6.02672 24.0625 5.46876V5.46876ZM5.46875 14.2188C4.59851 14.2188 3.76391 14.5645 3.14856 15.1798C2.5332 15.7952 2.1875 16.6298 2.1875 17.5C2.1875 18.3703 2.5332 19.2049 3.14856 19.8202C3.76391 20.4356 4.59851 20.7813 5.46875 20.7813C6.33899 20.7813 7.17359 20.4356 7.78894 19.8202C8.4043 19.2049 8.75 18.3703 8.75 17.5C8.75 16.6298 8.4043 15.7952 7.78894 15.1798C7.17359 14.5645 6.33899 14.2188 5.46875 14.2188ZM29.5312 26.25C28.661 26.25 27.8264 26.5957 27.2111 27.2111C26.5957 27.8264 26.25 28.661 26.25 29.5313C26.25 30.4015 26.5957 31.2361 27.2111 31.8515C27.8264 32.4668 28.661 32.8125 29.5312 32.8125C30.4015 32.8125 31.2361 32.4668 31.8514 31.8515C32.4668 31.2361 32.8125 30.4015 32.8125 29.5313C32.8125 28.661 32.4668 27.8264 31.8514 27.2111C31.2361 26.5957 30.4015 26.25 29.5312 26.25Z" fill="#535353"/>
</g>
<defs>
<clipPath id="clip0_348_1390">
<rect width="35" height="35" fill="white"/>
</clipPath>
</defs>
</svg>
