<svg width="12" height="12" viewBox="0 0 12 12" fill="none" xmlns="http://www.w3.org/2000/svg">
<path d="M9.48118 0.355092L5.86932 3.96696L2.25745 0.355092C2.12044 0.21809 1.89626 0.21809 1.75926 0.355092L0.264691 1.84966C0.127689 1.98666 0.127689 2.21085 0.264691 2.34785L3.87656 5.95972L0.264691 9.57159C0.127689 9.70859 0.127689 9.93277 0.264691 10.0698L1.75926 11.5643C1.89626 11.7013 2.12044 11.7013 2.25745 11.5643L5.86932 7.95247L9.48118 11.5643C9.61819 11.7013 9.84237 11.7013 9.97937 11.5643L11.4739 10.0698C11.6109 9.93277 11.6109 9.70859 11.4739 9.57159L7.86207 5.95972L11.4739 2.34785C11.6109 2.21085 11.6109 1.98666 11.4739 1.84966L9.97937 0.355092C9.84237 0.21809 9.61819 0.21809 9.48118 0.355092Z" fill="#FF357E"/>
</svg>
