<svg width="35" height="35" viewBox="0 0 35 35" fill="none" xmlns="http://www.w3.org/2000/svg">
<path d="M23.9259 0L21.8533 0.911458C19.5204 1.93667 18.006 2.99688 17.0035 4.10229C16.001 5.20625 15.5266 6.42104 15.2825 7.33688C15.0372 8.25563 14.9396 8.78938 14.7744 9.06938C14.6267 9.31438 14.3739 9.60896 13.5604 9.88896C13.5466 9.87729 13.4477 9.80438 13.444 9.79854H13.4052C12.788 9.33564 12.0957 9.02541 11.3714 8.88708C9.28875 8.47729 7.1085 9.53604 5.89572 11.8038L5.85567 11.849C5.05237 13.4429 4.72245 15.3009 4.91699 17.1354C4.98082 17.7275 5.10848 18.3312 5.30873 18.9131C4.37932 18.9835 3.47912 19.3198 2.68779 19.8921C1.89645 20.4644 1.23837 21.2552 0.771768 22.1944H0.732969C-0.792703 25.3327 0.135967 29.384 2.84438 31.1719H2.88443V31.2171C3.02586 31.2973 4.69296 32.3225 7.1861 33.2223C9.67924 34.1221 13.1699 35 17.5116 35C21.8533 35 25.339 34.1571 27.8371 33.2675C30.3065 32.3852 31.6945 31.519 32.1788 31.1719L32.2176 31.1267C34.8872 29.3198 35.7871 25.3444 34.2514 22.2848H34.2902C33.6101 20.8682 32.4906 19.8085 31.1613 19.3229C31.1613 19.3171 31.1225 19.3288 31.1225 19.3229C30.9302 18.4998 30.5996 17.7295 30.1496 17.0565C29.6997 16.3836 29.1396 15.8215 28.5017 15.4029C28.6732 14.7656 28.7758 14.0248 28.7758 13.125C28.7758 11.4333 28.2576 10.0085 27.563 8.9775C26.8696 7.94646 26.0336 7.25667 25.334 6.60771C24.6343 5.95875 24.0724 5.36083 23.7695 4.78479C23.4666 4.21021 23.3152 3.66188 23.4954 2.55208L23.9259 0ZM21.1099 4.64917C21.2275 5.25729 21.4028 5.85083 21.6581 6.335C22.2488 7.45792 23.0411 8.16958 23.7695 8.84187C24.4979 9.51271 25.1775 10.1573 25.6081 10.8004C26.0373 11.445 26.2726 12.0604 26.2726 13.125C26.2726 13.825 26.2038 14.2523 26.1162 14.5833C22.7031 14.0029 19.7169 12.9996 17.5116 12.0313C17.0711 11.8373 16.6856 11.6331 16.2988 11.4392C16.5091 11.2219 16.6956 10.9667 16.847 10.71C17.409 9.75771 17.4866 8.83604 17.6681 8.15792C17.8495 7.47979 18.0548 6.93875 18.7244 6.19792C19.1249 5.75313 20.2388 5.17708 21.1099 4.64771V4.64917ZM10.3926 11.62C10.9458 11.6156 11.5128 11.8154 12.036 12.2135C12.7243 12.7721 14.2012 13.6485 16.6518 14.7204C19.7692 16.0862 23.01 17.0339 26.3114 17.5452H26.3515C27.2213 17.6706 27.9397 18.2685 28.3853 19.1406C27.9397 19.2369 27.4804 19.374 27.0549 19.5971C26.9923 19.6306 26.9235 19.6073 26.8596 19.6408C26.8096 19.6583 26.8008 19.6758 26.7808 19.6875C26.742 19.7108 26.7032 19.7108 26.6644 19.7327C26.6293 19.7502 26.5893 19.8013 26.5467 19.8246C26.4391 19.8815 26.2827 19.9558 26.0774 20.0521C25.6719 20.2519 25.0649 20.5085 24.2776 20.7812C22.7031 21.3223 20.4153 21.875 17.5116 21.875C15.3551 21.875 13.5128 21.5906 12.0748 21.2363C11.6242 21.1123 11.1899 20.9737 10.7844 20.8279C9.96835 20.5246 9.2099 20.0915 9.21991 20.0988C8.00713 19.1465 7.51401 18.0017 7.38134 16.7708C7.24993 15.54 7.54405 14.2304 8.00713 13.3073C8.59412 12.2077 9.47398 11.6317 10.3926 11.62ZM5.34878 21.7846C5.94453 21.7321 6.57032 21.9042 7.1473 22.2848C7.15731 22.2906 7.17609 22.3256 7.1861 22.3315C7.25494 22.3752 7.34255 22.4219 7.4214 22.4671C7.57784 22.5648 7.75807 22.661 8.00713 22.7865C8.50651 23.0373 9.19613 23.3115 10.0797 23.6075C10.3926 23.7096 10.7744 23.8233 11.1361 23.9254C11.2687 23.9663 11.3901 24.0231 11.5278 24.0625C11.5416 24.0683 11.5528 24.0567 11.5666 24.0625C12.0647 24.2113 12.5591 24.341 13.0535 24.4271V24.3819C14.5274 24.66 16.0185 24.797 17.5116 24.7917C20.6844 24.7917 23.2175 24.1704 24.9823 23.5608C25.8671 23.2546 26.5755 22.9294 27.0549 22.696C27.2301 22.6085 27.329 22.5298 27.4466 22.4671H27.563L27.6031 22.4219L27.8371 22.2848C29.3916 21.3165 31.2589 21.891 32.14 23.6979V23.7431C32.9949 25.4465 32.5017 27.6515 30.9661 28.665H30.9273V28.7117C30.8296 28.7788 29.4216 29.6742 27.1325 30.4879C24.8458 31.3031 21.5792 32.0833 17.5116 32.0833C13.444 32.0833 10.1836 31.3148 7.88948 30.4879C5.62663 29.6683 4.49271 28.9217 4.05716 28.665C4.03713 28.6533 4.03213 28.6315 4.01836 28.6198C2.52147 27.5888 2.05714 25.4348 2.92323 23.6527C3.35753 22.804 4.00834 22.171 4.76054 21.9202C4.95203 21.8575 5.14853 21.8006 5.34878 21.7846Z" fill="#535353"/>
</svg>
