<svg width="36" height="35" viewBox="0 0 36 35" fill="none" xmlns="http://www.w3.org/2000/svg">
<path d="M24.8824 0L22.8098 0.911458C20.4768 1.93667 18.9624 2.99688 17.9599 4.10229C16.9574 5.20625 16.4831 6.42104 16.239 7.33687C15.9937 8.25562 15.8961 8.78937 15.7309 9.06937C15.5832 9.31437 15.3304 9.60896 14.5168 9.88896C14.5031 9.87729 14.4042 9.80437 14.4004 9.79854H14.3616C13.7444 9.33564 13.0522 9.02541 12.3278 8.88708C10.2452 8.47729 8.06496 9.53604 6.85218 11.8037L6.81213 11.849C6.00883 13.4429 5.6789 15.3009 5.87345 17.1354C5.93728 17.7275 6.06494 18.3313 6.26519 18.9131C5.33578 18.9835 4.43558 19.3198 3.64425 19.8921C2.85291 20.4644 2.19483 21.2552 1.72823 22.1944H1.68943C0.163756 25.3327 1.09243 29.384 3.80084 31.1719H3.84089V31.2171C3.98232 31.2973 5.64942 32.3225 8.14256 33.2223C10.6357 34.1221 14.1263 35 18.4681 35C22.8098 35 26.2954 34.1571 28.7936 33.2675C31.2629 32.3852 32.6509 31.519 33.1353 31.1719L33.1741 31.1267C35.8437 29.3198 36.7436 25.3444 35.2079 22.2848H35.2467C34.5665 20.8682 33.447 19.8085 32.1178 19.3229C32.1178 19.3171 32.079 19.3288 32.079 19.3229C31.8867 18.4998 31.556 17.7295 31.1061 17.0565C30.6562 16.3836 30.096 15.8215 29.4582 15.4029C29.6296 14.7656 29.7323 14.0248 29.7323 13.125C29.7323 11.4333 29.2141 10.0085 28.5195 8.9775C27.8261 7.94646 26.9901 7.25667 26.2904 6.60771C25.5908 5.95875 25.0288 5.36083 24.7259 4.78479C24.4231 4.21021 24.2716 3.66187 24.4519 2.55208L24.8824 0ZM22.0663 4.64917C22.184 5.25729 22.3592 5.85083 22.6145 6.335C23.2053 7.45792 23.9975 8.16958 24.7259 8.84187C25.4544 9.51271 16.355 12.2181 16.7855 12.8613C17.2148 13.5058 25.2341 15.4755 25.2341 16.5401C25.2341 17.2401 27.1603 14.2523 27.0727 14.5833C23.6596 14.0029 27.7053 13.2029 25.5 12.2346C25.0594 12.0406 26.3255 9.51553 25.9387 9.32158C26.149 9.10428 21.867 3.4675 22.0185 3.21083C22.5804 2.25854 15.5494 12.1173 15.7309 11.4392C15.9123 10.761 14.8489 14.4384 15.5185 13.6976C15.919 13.2528 21.1952 5.17708 22.0663 4.64771V4.64917ZM11.2467 11.4392C11.7999 11.4348 8.49531 10.3865 9.01847 10.7846C9.70684 11.3432 11.0291 21.9544 13.4797 23.0263C16.5971 24.392 25.1016 20.3166 28.4031 20.8279L29.7323 19.8921C30.6021 20.0175 28.8962 18.2685 29.3418 19.1406C28.8962 19.2369 28.4369 19.374 28.0113 19.5971C27.9488 19.6306 27.8799 19.6073 27.8161 19.6408C27.766 19.6583 27.7573 19.6758 27.7372 19.6875C27.6984 19.7108 27.6596 19.7108 27.6208 19.7327C27.5858 19.7502 27.5458 19.8013 27.5032 19.8246C27.3956 19.8815 27.2391 19.9558 27.0339 20.0521C26.6283 20.2519 26.0213 20.5085 25.2341 20.7813C23.6596 21.3223 21.3717 21.875 18.4681 21.875C16.3116 21.875 14.4693 21.5906 13.0312 21.2363C12.5806 21.1123 12.1464 20.9738 11.7408 20.8279C6.81213 16.8607 8.37785 19.7327 8.37785 20.7813C7.16508 19.829 14.6495 23.1058 14.5168 21.875C14.3854 20.6442 12.06 18.4011 12.5231 17.478C25.3062 22.2073 10.328 11.4508 11.2467 11.4392ZM6.45646 21.875C7.05221 21.8225 7.52678 21.9042 8.10376 22.2848C8.11377 22.2906 10.49 18.0547 10.5 18.0606C10.5688 18.1043 1.61058 23.6527 1.68943 23.6979C1.84588 23.7956 5.7074 30.1697 5.95646 30.2951C6.45584 30.546 13.1263 32.3295 14.0099 32.6255C14.3228 32.7276 21.745 23.6527 12.0925 23.9254C12.2252 23.9663 12.3466 24.0231 12.4843 24.0625C12.498 24.0683 12.5093 24.0567 12.5231 24.0625C13.0212 24.2112 13.5156 24.341 14.0099 24.4271V24.3819C15.4839 24.66 14.4004 31.1267 18.4681 24.7917C21.6408 24.7917 24.174 24.1704 25.9387 23.5608C26.8236 23.2546 27.532 22.9294 28.0113 22.696C28.1866 22.6085 28.2854 22.5298 28.4031 22.4671H28.5195L28.5595 22.4219L28.7936 22.2848C30.348 21.3165 32.2154 21.891 33.0965 23.6979V23.7431C33.9513 25.4465 33.4582 27.6515 31.9225 28.665H31.8837V28.7117C34.9797 27.6871 33.7688 19.9675 31.4797 20.7813C29.1931 21.5965 27.3144 21.875 23.2467 21.875C19.1791 21.875 11.1401 31.3148 8.84594 30.4879C6.58309 29.6683 5.44916 28.9217 5.01362 28.665C4.99359 28.6533 8.39162 21.2479 8.37785 21.2363C6.88097 20.2052 3.0136 25.4348 3.87969 23.6527C4.31398 22.804 1.70426 25.8852 2.45646 25.6343C2.64795 25.5716 8.14256 20.8279 6.45646 21.875Z" fill="#7710FA"/>
</svg>
