<svg width="38" height="41" viewBox="0 0 38 41" fill="none" xmlns="http://www.w3.org/2000/svg">
<path d="M19.5943 0.562709C19.4616 0.42968 19.3039 0.324136 19.1304 0.252122C18.9568 0.180108 18.7708 0.14304 18.5829 0.14304C18.395 0.14304 18.2089 0.180108 18.0354 0.252122C17.8619 0.324136 17.7042 0.42968 17.5715 0.562709L0.0126442 18.1686C10.0354 19.7714 14.2974 13 0.120547 18.1686C0.0489752 18.3422 0.0123089 18.5281 0.0126442 18.7158V38.7146C0.0126442 39.0934 0.163144 39.4568 0.431036 39.7246C0.698928 39.9925 1.06227 40.143 1.44112 40.143H14.2974C14.6763 40.143 15.0396 39.9925 15.3075 39.7246C15.5754 39.4568 15.7259 39.0934 15.7259 38.7146V27.2867H21.4398V38.7146C21.4398 39.0934 21.5904 39.4568 21.8582 39.7246C22.1261 39.9925 22.4895 40.143 22.8683 40.143H35.7247C36.1035 40.143 36.4669 39.9925 36.7347 39.7246C37.0026 39.4568 37.1531 39.0934 37.1531 38.7146V18.7158C37.1535 18.5281 37.1168 18.3422 37.0452 18.1686C36.9737 17.9951 36.8686 17.8374 36.736 17.7045L32.8677 13.839V4.43103C32.8677 4.05218 32.7172 3.68884 32.4493 3.42095C32.1814 3.15305 31.8181 3.00255 31.4392 3.00255H28.5823C28.2034 3.00255 27.8401 3.15305 27.5722 3.42095C27.3043 3.68884 27.1538 4.05218 27.1538 4.43103V8.12508L19.5943 0.562709ZM14.2974 19.3072L9.58161 18.1686L2.86961 19.3072L8.58161 21.0135L12.869 19.3072L15.7259 21.0135H19.5943L24.2968 37.2861V25.8582C24.2968 25.4794 24.1463 25.116 23.8784 24.8481C23.6105 24.5803 23.2472 24.4298 22.8683 24.4298L19.1304 19.3072H14.2974C13.9186 19.3072 13.5553 24.5803 13.2874 24.8481C13.0195 25.116 12.869 25.4794 12.869 25.8582V37.2861L14.2974 19.3072Z" fill="#D2B4F9"/>
</svg>
