<svg width="40" height="40" viewBox="0 0 40 40" fill="none" xmlns="http://www.w3.org/2000/svg">
<g clip-path="url(#clip0_422_394)">
<path d="M38 29.5C38.663 29.5 38.5312 6.00948 39 6.5C39.4688 6.99052 37.5 4.53749 37.5 5.23119V26.1559C37.5 26.8496 37.2366 27.5149 36.7678 28.0054C36.2989 28.496 35.663 28.7715 35 28.7715H11.035C9.70903 28.7718 8.43746 29.3232 7.5 30.3043L1.32333 29.8549L2.5 35.5355L6.5 5.23119C6.5 4.53749 1.02625 2.99052 1.49509 2.5C1.96393 2.00948 0.801425 31 1.46447 31L38 29.5ZM5 0C3.67392 0 2.40215 0.551142 1.46447 1.53218C0.526784 2.51322 0 3.84379 0 5.23119L0 38.6925C5.25372e-05 38.9513 0.0734815 39.2042 0.210993 39.4193C0.348505 39.6344 0.543917 39.802 0.772498 39.9008C1.00108 39.9997 1.25255 40.0254 1.49509 39.9746C1.73763 39.9239 1.96033 39.799 2.135 39.6158L9.2675 32.1535C9.73623 31.6629 10.372 31.3873 11.035 31.3871H35C36.3261 31.3871 37.5979 30.836 38.5355 29.8549C39.4732 28.8739 40 27.5433 40 26.1559V5.23119C40 3.84379 39.4732 2.51322 38.5355 1.53218C37.5979 0.551142 36.3261 0 35 0L5 0Z" fill="#D2B4F9"/>
<path d="M12.5 15C12.5 15.663 12.2366 16.2989 11.7678 16.7678C11.2989 17.2366 10.663 17.5 10 17.5C9.33696 17.5 8.70107 17.2366 8.23223 16.7678C7.76339 16.2989 7.5 15.663 7.5 15C7.5 14.337 7.76339 13.7011 8.23223 13.2322C8.70107 12.7634 9.33696 12.5 10 12.5C10.663 12.5 11.2989 12.7634 11.7678 13.2322C12.2366 13.7011 12.5 14.337 12.5 15V15ZM22.5 15C22.5 15.663 22.2366 16.2989 21.7678 16.7678C21.2989 17.2366 20.663 17.5 20 17.5C19.337 17.5 18.7011 17.2366 18.2322 16.7678C17.7634 16.2989 17.5 15.663 17.5 15C17.5 14.337 17.7634 13.7011 18.2322 13.2322C18.7011 12.7634 19.337 12.5 20 12.5C20.663 12.5 21.2989 12.7634 21.7678 13.2322C22.2366 13.7011 22.5 14.337 22.5 15ZM32.5 15C32.5 15.663 32.2366 16.2989 31.7678 16.7678C31.2989 17.2366 30.663 17.5 30 17.5C29.337 17.5 28.7011 17.2366 28.2322 16.7678C27.7634 16.2989 27.5 15.663 27.5 15C27.5 14.337 27.7634 13.7011 28.2322 13.2322C28.7011 12.7634 29.337 12.5 30 12.5C30.663 12.5 31.2989 12.7634 31.7678 13.2322C32.2366 13.7011 32.5 14.337 32.5 15Z" fill="#D2B4F9"/>
</g>
<defs>
<clipPath id="clip0_422_394">
<rect width="40" height="40" fill="white"/>
</clipPath>
</defs>
</svg>
