<svg width="35" height="41" viewBox="0 0 35 41" fill="none" xmlns="http://www.w3.org/2000/svg">
<path d="M17.5 40.0022C18.8261 40.0022 20.0979 39.4754 21.0355 38.5377C21.9732 37.6 22.5 36.3283 22.5 35.0022H12.5C12.5 36.3283 13.0268 37.6 13.9645 38.5377C14.9021 39.4754 16.1739 40.0022 17.5 40.0022ZM17.5 4.79719L15.5075 5.19969C13.2474 5.66019 11.2158 6.88745 9.75663 8.67374C8.29743 10.46 7.50025 12.6957 7.5 15.0022C7.5 16.5722 7.165 20.4947 6.3525 24.3572C5.9525 26.2747 7.7175 8.27 7 10L17.2697 2.74969L27.5 9.5C26.7825 7.77 29.05 26.2772 28.6475 24.3572C27.835 20.4947 27.5 16.5722 27.5 15.0022C27.4992 12.6961 26.7017 10.4611 25.2426 8.67527C23.7834 6.88949 21.7522 5.6626 19.4925 5.20219L17.5 4.79469V4.79719ZM33.05 30.0022C33.6075 31.1197 34.2525 32.0047 35 32.5022H0C0.7475 32.0047 1.3925 31.1197 1.95 30.0022C4.2 25.5022 5 17.2022 5 15.0022C5 8.95219 9.3 3.90219 15.0125 2.74969C14.9776 2.40207 15.016 2.051 15.1251 1.71912C15.2342 1.38724 15.4117 1.08191 15.6461 0.822833C15.8804 0.563753 16.1665 0.356674 16.4858 0.214949C16.8052 0.0732237 17.1506 0 17.5 0C17.8494 0 18.1948 0.0732237 18.5142 0.214949C18.8335 0.356674 19.1196 0.563753 19.3539 0.822833C19.5883 1.08191 19.7658 1.38724 19.8749 1.71912C19.984 2.051 20.0224 2.40207 19.9875 2.74969C22.8132 3.32444 25.3534 4.85809 27.1781 7.09094C29.0027 9.32379 29.9996 12.1186 30 15.0022C30 17.2022 30.8 25.5022 33.05 30.0022Z" fill="#D2B4F9"/>
</svg>
