<svg width="45" height="10" viewBox="0 0 45 10" fill="none" xmlns="http://www.w3.org/2000/svg">
<path d="M5.37133 9.6875C4.01354 9.6875 2.71136 9.19364 1.75126 8.31456C0.791151 7.43549 0.25177 6.2432 0.25177 5C0.25177 3.7568 0.791151 2.56451 1.75126 1.68544C2.71136 0.80636 4.01354 0.3125 5.37133 0.3125C6.72913 0.3125 8.03131 0.80636 8.99141 1.68544C9.95152 2.56451 10.4909 3.7568 10.4909 5C10.4909 6.2432 9.95152 7.43549 8.99141 8.31456C8.03131 9.19364 6.72913 9.6875 5.37133 9.6875ZM22.4365 9.6875C21.0787 9.6875 19.7766 9.19364 18.8165 8.31456C17.8564 7.43549 17.317 6.2432 17.317 5C17.317 3.7568 17.8564 2.56451 18.8165 1.68544C19.7766 0.80636 21.0787 0.3125 22.4365 0.3125C23.7943 0.3125 25.0965 0.80636 26.0566 1.68544C27.0167 2.56451 27.5561 3.7568 27.5561 5C27.5561 6.2432 27.0167 7.43549 26.0566 8.31456C25.0965 9.19364 23.7943 9.6875 22.4365 9.6875ZM39.5018 9.6875C38.144 9.6875 36.8418 9.19364 35.8817 8.31456C34.9216 7.43549 34.3822 6.2432 34.3822 5C34.3822 3.7568 34.9216 2.56451 35.8817 1.68544C36.8418 0.80636 38.144 0.3125 39.5018 0.3125C40.8595 0.3125 42.1617 0.80636 43.1218 1.68544C44.0819 2.56451 44.6213 3.7568 44.6213 5C44.6213 6.2432 44.0819 7.43549 43.1218 8.31456C42.1617 9.19364 40.8595 9.6875 39.5018 9.6875Z" fill="black"/>
</svg>
