<svg width="88" height="30" viewBox="0 0 88 30" fill="none" xmlns="http://www.w3.org/2000/svg">
<path d="M5.27861 13.4754C5.27861 14.7964 4.27331 15.7791 3.1393 15.7791C2.0053 15.7791 1 14.7964 1 13.4754C1 12.1543 2.0053 11.1716 3.1393 11.1716C4.27331 11.1716 5.27861 12.1543 5.27861 13.4754Z" fill="#E5E5E5" stroke="#E5E5E5" stroke-width="2"/>
<path d="M10.9294 8.18935C10.9294 9.51041 9.92407 10.4931 8.79006 10.4931C7.65606 10.4931 6.65076 9.51041 6.65076 8.18935C6.65076 6.86829 7.65606 5.88559 8.79006 5.88559C9.92407 5.88559 10.9294 6.86829 10.9294 8.18935Z" fill="#E5E5E5" stroke="#E5E5E5" stroke-width="2"/>
<path d="M18.4637 8.18935C18.4637 9.51041 17.4584 10.4931 16.3244 10.4931C15.1904 10.4931 14.1851 9.51041 14.1851 8.18935C14.1851 6.86829 15.1904 5.88559 16.3244 5.88559C17.4584 5.88559 18.4637 6.86829 18.4637 8.18935Z" fill="#E5E5E5" stroke="#E5E5E5" stroke-width="2"/>
<path d="M24.1145 13.4754C24.1145 14.7964 23.1092 15.7791 21.9752 15.7791C20.8412 15.7791 19.8359 14.7964 19.8359 13.4754C19.8359 12.1543 20.8412 11.1716 21.9752 11.1716C23.1092 11.1716 24.1145 12.1543 24.1145 13.4754Z" fill="#E5E5E5" stroke="#E5E5E5" stroke-width="2"/>
<path d="M18.4859 21.1883L18.5107 21.2189L18.5379 21.2475C18.6386 21.3535 18.739 21.4585 18.8387 21.5628C19.5864 22.3449 20.2952 23.0863 20.8227 23.9085C21.3884 24.7902 21.6888 25.684 21.5587 26.6984C21.2458 27.7871 20.54 28.7157 19.409 28.9887C19.4069 28.989 19.4043 28.9894 19.4012 28.9897C19.3908 28.991 19.3761 28.9924 19.3568 28.9937C19.3175 28.9961 19.2655 28.9973 19.1987 28.996C19.0634 28.9935 18.8919 28.9816 18.6795 28.96C18.3188 28.9234 17.8915 28.8648 17.3904 28.796C17.2947 28.7829 17.1963 28.7693 17.0952 28.7556C15.8577 28.5868 14.2888 28.3863 12.6577 28.3863H12.4316C10.7994 28.3863 9.2294 28.5904 7.99279 28.7607C7.90392 28.7729 7.81718 28.7849 7.73254 28.7967C7.21675 28.8681 6.77885 28.9287 6.41115 28.9655C6.19948 28.9867 6.02939 28.9979 5.89582 28.9998C5.82988 29.0006 5.77905 28.9991 5.74113 28.9964C5.71202 28.9943 5.69552 28.9919 5.68925 28.9909C4.55071 28.7201 3.84416 27.7998 3.53132 26.7016C3.40651 25.6942 3.70883 24.8031 4.27666 23.9216C4.80528 23.1009 5.51375 22.3599 6.26058 21.5787C6.36115 21.4735 6.46242 21.3676 6.56403 21.2607L6.58925 21.2341L6.61245 21.2058C7.32298 20.3391 7.95868 19.5506 8.61011 18.7426C8.97235 18.2933 9.33946 17.838 9.727 17.3598C10.2894 16.6804 10.8744 16.1447 11.4902 15.9225L11.4992 15.9193L11.5082 15.9158C11.5942 15.8829 11.6757 15.8599 11.7531 15.8451L11.7531 15.8452L11.7636 15.8431C11.9753 15.8002 12.2132 15.7969 12.5572 15.7969C12.8951 15.7969 13.1451 15.7993 13.3593 15.834C13.4336 15.8488 13.5116 15.8712 13.5937 15.9026L13.6026 15.906L13.6117 15.9093C14.2315 16.1329 14.8308 16.6744 15.3713 17.3422L15.3713 17.3422L15.3752 17.347C16.0814 18.2084 16.7076 18.9851 17.355 19.7881C17.7192 20.2399 18.0902 20.7 18.4859 21.1883Z" fill="#E5E5E5" stroke="#E5E5E5" stroke-width="2"/>
<path d="M38.6799 21.6143L43.0462 5.77828H49.6065L41.6777 29.2824H35.6821L27.7533 5.77828H34.3136L38.6799 21.6143Z" fill="#E5E5E5"/>
<path d="M62.9009 29.7169C59.4542 29.7169 56.6447 28.6597 54.4724 26.5453C52.3146 24.431 51.2357 21.6143 51.2357 18.0951V17.4869C51.2357 15.1264 51.6919 13.0192 52.6043 11.1656C53.5166 9.29739 54.8055 7.86368 56.4709 6.86443C58.1508 5.85069 60.0624 5.34383 62.2058 5.34383C65.4207 5.34383 67.9478 6.35756 69.787 8.38503C71.6407 10.4125 72.5676 13.2872 72.5676 17.009V19.5723H57.6005C57.8033 21.1074 58.4115 22.3383 59.4252 23.2652C60.4535 24.192 61.7496 24.6555 63.3136 24.6555C65.7321 24.6555 67.622 23.7793 68.9833 22.027L72.0679 25.4809C71.1266 26.8133 69.8522 27.856 68.2447 28.609C66.6372 29.3476 64.856 29.7169 62.9009 29.7169ZM62.184 10.427C60.9386 10.427 59.9249 10.847 59.1428 11.6869C58.3753 12.5269 57.8829 13.7289 57.6657 15.2929H66.3983V14.7933C66.3693 13.403 65.9928 12.3313 65.2687 11.5783C64.5446 10.8107 63.5164 10.427 62.184 10.427Z" fill="#E5E5E5"/>
<path d="M83.668 0V5.77828H87.6867V10.3835H83.668V22.1139C83.668 22.9828 83.8345 23.6055 84.1676 23.982C84.5007 24.3586 85.1379 24.5468 86.0792 24.5468C86.7743 24.5468 87.3898 24.4962 87.9256 24.3948V29.1521C86.6947 29.5286 85.4275 29.7169 84.1241 29.7169C79.7216 29.7169 77.4769 27.4939 77.39 23.048V10.3835H73.9578V5.77828H77.39V0H83.668Z" fill="#E5E5E5"/>
</svg>
