<svg width="260" height="54" viewBox="0 0 260 54" fill="none" xmlns="http://www.w3.org/2000/svg">
<path d="M7.75 25.9709C7.75 28.0102 6.19146 29.5751 4.375 29.5751C2.55854 29.5751 1 28.0102 1 25.9709C1 23.9316 2.55854 22.3667 4.375 22.3667C6.19146 22.3667 7.75 23.9316 7.75 25.9709Z" fill="#7710FA" stroke="#7710FA" stroke-width="2"/>
<path d="M15.625 18.6042C15.625 20.6435 14.0665 22.2084 12.25 22.2084C10.4335 22.2084 8.875 20.6435 8.875 18.6042C8.875 16.5649 10.4335 15 12.25 15C14.0665 15 15.625 16.5649 15.625 18.6042Z" fill="#7710FA" stroke="#7710FA" stroke-width="2"/>
<path d="M26.125 18.6042C26.125 20.6435 24.5665 22.2084 22.75 22.2084C20.9335 22.2084 19.375 20.6435 19.375 18.6042C19.375 16.5649 20.9335 15 22.75 15C24.5665 15 26.125 16.5649 26.125 18.6042Z" fill="#7710FA" stroke="#7710FA" stroke-width="2"/>
<path d="M34 25.9709C34 28.0102 32.4415 29.5751 30.625 29.5751C28.8085 29.5751 27.25 28.0102 27.25 25.9709C27.25 23.9316 28.8085 22.3667 30.625 22.3667C32.4415 22.3667 34 23.9316 34 25.9709Z" fill="#7710FA" stroke="#7710FA" stroke-width="2"/>
<path d="M26.0681 36.4719L26.0929 36.5025L26.1201 36.531C26.2595 36.6777 26.399 36.8236 26.5381 36.9691C27.577 38.0554 28.5931 39.1179 29.3502 40.2981C30.1771 41.5868 30.6375 42.934 30.4312 44.4787C29.9738 46.0964 28.905 47.5545 27.1255 47.9769C26.9679 48.0054 26.6177 48.0056 25.9925 47.9422C25.4822 47.8904 24.8783 47.8075 24.1803 47.7117C24.0473 47.6934 23.9109 47.6747 23.7711 47.6556C22.0473 47.4205 19.884 47.1446 17.64 47.1446H17.325C15.0799 47.1446 12.9155 47.4254 11.1926 47.6627C11.0695 47.6797 10.949 47.6964 10.8312 47.7127C10.1133 47.8121 9.49439 47.8978 8.97391 47.9498C8.3418 48.0131 7.99627 48.0091 7.84742 47.9788C6.0608 47.5584 4.99168 46.1138 4.53451 44.4818C4.33592 42.9469 4.79952 41.6037 5.62913 40.3157C6.38773 39.138 7.40319 38.0762 8.44091 36.9912C8.5812 36.8445 8.7219 36.6973 8.86243 36.5495L8.88764 36.5229L8.91085 36.4946C9.90021 35.2878 10.7843 34.1912 11.6914 33.0661C12.1968 32.4393 12.7093 31.8035 13.2512 31.1349C14.0461 30.1744 14.9177 29.358 15.8794 29.011L15.8884 29.0077L15.8974 29.0043C16.0378 28.9506 16.1736 28.912 16.3054 28.8868L16.3055 28.8868L16.3159 28.8847C16.6562 28.8158 17.0274 28.8125 17.5 28.8125C17.9672 28.8125 18.3502 28.8149 18.6878 28.8704C18.8162 28.8957 18.9485 28.9336 19.0851 28.9859L19.0941 28.9893L19.1031 28.9926C20.0689 29.341 20.9598 30.1634 21.7277 31.1121L21.7277 31.1121L21.7317 31.1169C22.7166 32.3183 23.5911 33.403 24.4941 34.5231C25.0016 35.1525 25.518 35.7931 26.0681 36.4719Z" fill="#7710FA" stroke="#7710FA" stroke-width="2"/>
<path d="M50.8213 37.3135L56.9062 15.2441H66.0488L54.999 48H46.6436L35.5938 15.2441H44.7363L50.8213 37.3135ZM84.5762 48.6055C79.7728 48.6055 75.8574 47.1322 72.8301 44.1855C69.8229 41.2389 68.3193 37.3135 68.3193 32.4092V31.5615C68.3193 28.2718 68.9551 25.3353 70.2266 22.752C71.498 20.1484 73.2943 18.1504 75.6152 16.7578C77.9564 15.3451 80.6204 14.6387 83.6074 14.6387C88.0879 14.6387 91.6097 16.0514 94.1729 18.877C96.7562 21.7025 98.0479 25.7087 98.0479 30.8955V34.4678H77.1895C77.472 36.6071 78.3197 38.3226 79.7324 39.6143C81.1654 40.9059 82.9717 41.5518 85.1514 41.5518C88.5218 41.5518 91.1556 40.3307 93.0527 37.8887L97.3516 42.7021C96.0397 44.5589 94.2637 46.012 92.0234 47.0615C89.7832 48.0908 87.3008 48.6055 84.5762 48.6055ZM83.5771 21.7227C81.8415 21.7227 80.4287 22.3079 79.3389 23.4785C78.2692 24.6491 77.583 26.3242 77.2803 28.5039H89.4502V27.8076C89.4098 25.8701 88.8851 24.3766 87.876 23.3271C86.8669 22.2575 85.4339 21.7227 83.5771 21.7227ZM113.518 7.19141V15.2441H119.118V21.6621H113.518V38.0098C113.518 39.2207 113.75 40.0885 114.214 40.6133C114.678 41.138 115.566 41.4004 116.878 41.4004C117.847 41.4004 118.704 41.3298 119.451 41.1885V47.8184C117.736 48.3431 115.97 48.6055 114.153 48.6055C108.018 48.6055 104.89 45.5075 104.769 39.3115V21.6621H99.9854V15.2441H104.769V7.19141H113.518ZM153.509 31.9248C153.509 37.1722 152.389 41.2692 150.148 44.2158C147.908 47.1423 144.78 48.6055 140.764 48.6055C137.212 48.6055 134.376 47.2432 132.257 44.5186L131.863 48H123.992V1.5H132.741V18.1807C134.759 15.8193 137.413 14.6387 140.703 14.6387C144.699 14.6387 147.827 16.112 150.088 19.0586C152.368 21.985 153.509 26.1123 153.509 31.4404V31.9248ZM144.76 31.2891C144.76 27.9792 144.235 25.5674 143.186 24.0537C142.136 22.5199 140.572 21.7529 138.493 21.7529C135.708 21.7529 133.791 22.8932 132.741 25.1738V38.1006C133.811 40.4014 135.748 41.5518 138.554 41.5518C141.379 41.5518 143.236 40.1592 144.124 37.374C144.548 36.042 144.76 34.0137 144.76 31.2891ZM157.565 31.3193C157.565 28.07 158.191 25.1738 159.442 22.6309C160.694 20.0879 162.49 18.1201 164.831 16.7275C167.192 15.335 169.927 14.6387 173.035 14.6387C177.455 14.6387 181.058 15.9909 183.843 18.6953C186.648 21.3997 188.212 25.0729 188.535 29.7148L188.596 31.9551C188.596 36.9805 187.193 41.0169 184.388 44.0645C181.582 47.0918 177.818 48.6055 173.096 48.6055C168.373 48.6055 164.599 47.0918 161.773 44.0645C158.968 41.0371 157.565 36.9199 157.565 31.7129V31.3193ZM166.314 31.9551C166.314 35.0632 166.9 37.4447 168.07 39.0996C169.241 40.7344 170.916 41.5518 173.096 41.5518C175.215 41.5518 176.87 40.7445 178.061 39.1299C179.251 37.4951 179.847 34.8916 179.847 31.3193C179.847 28.2718 179.251 25.9105 178.061 24.2354C176.87 22.5602 175.195 21.7227 173.035 21.7227C170.896 21.7227 169.241 22.5602 168.07 24.2354C166.9 25.8903 166.314 28.4635 166.314 31.9551ZM192.622 31.3193C192.622 28.07 193.248 25.1738 194.499 22.6309C195.75 20.0879 197.547 18.1201 199.888 16.7275C202.249 15.335 204.984 14.6387 208.092 14.6387C212.512 14.6387 216.114 15.9909 218.899 18.6953C221.705 21.3997 223.269 25.0729 223.592 29.7148L223.652 31.9551C223.652 36.9805 222.25 41.0169 219.444 44.0645C216.639 47.0918 212.875 48.6055 208.152 48.6055C203.43 48.6055 199.656 47.0918 196.83 44.0645C194.025 41.0371 192.622 36.9199 192.622 31.7129V31.3193ZM201.371 31.9551C201.371 35.0632 201.956 37.4447 203.127 39.0996C204.298 40.7344 205.973 41.5518 208.152 41.5518C210.271 41.5518 211.926 40.7445 213.117 39.1299C214.308 37.4951 214.903 34.8916 214.903 31.3193C214.903 28.2718 214.308 25.9105 213.117 24.2354C211.926 22.5602 210.251 21.7227 208.092 21.7227C205.952 21.7227 204.298 22.5602 203.127 24.2354C201.956 25.8903 201.371 28.4635 201.371 31.9551ZM240.938 34.8613L237.79 38.0098V48H229.041V1.5H237.79V27.2627L239.485 25.083L247.871 15.2441H258.376L246.539 28.8975L259.405 48H249.354L240.938 34.8613Z" fill="#7710FA"/>
</svg>
