<svg width="164" height="30" viewBox="0 0 164 30" fill="none" xmlns="http://www.w3.org/2000/svg">
<path d="M4.52632 15.4553C4.52632 16.5578 3.68942 17.3632 2.76316 17.3632C1.83689 17.3632 1 16.5578 1 15.4553C1 14.3529 1.83689 13.5474 2.76316 13.5474C3.68942 13.5474 4.52632 14.3529 4.52632 15.4553Z" fill="#E5E5E5" stroke="#E5E5E5" stroke-width="2"/>
<path d="M9.50007 10.8027C9.50007 11.9051 8.66318 12.7106 7.73691 12.7106C6.81065 12.7106 5.97375 11.9051 5.97375 10.8027C5.97375 9.70025 6.81065 8.89478 7.73691 8.89478C8.66318 8.89478 9.50007 9.70025 9.50007 10.8027Z" fill="#E5E5E5" stroke="#E5E5E5" stroke-width="2"/>
<path d="M16.1317 10.8027C16.1317 11.9051 15.2948 12.7106 14.3685 12.7106C13.4422 12.7106 12.6053 11.9051 12.6053 10.8027C12.6053 9.70025 13.4422 8.89478 14.3685 8.89478C15.2948 8.89478 16.1317 9.70025 16.1317 10.8027Z" fill="#E5E5E5" stroke="#E5E5E5" stroke-width="2"/>
<path d="M21.1052 15.4553C21.1052 16.5578 20.2683 17.3632 19.342 17.3632C18.4158 17.3632 17.5789 16.5578 17.5789 15.4553C17.5789 14.3529 18.4158 13.5474 19.342 13.5474C20.2683 13.5474 21.1052 14.3529 21.1052 15.4553Z" fill="#E5E5E5" stroke="#E5E5E5" stroke-width="2"/>
<path d="M16.178 22.3195L16.2028 22.3502L16.23 22.3787C16.3189 22.4724 16.4074 22.5649 16.4951 22.6566C17.1542 23.3462 17.7694 23.9899 18.227 24.7031C18.7131 25.4607 18.9649 26.2166 18.858 27.0698C18.5893 27.9966 17.9946 28.7642 17.0611 28.9921C17.0457 28.9938 16.9968 28.9984 16.9007 28.9966C16.7863 28.9944 16.639 28.9843 16.4536 28.9655C16.1384 28.9335 15.7649 28.8822 15.3237 28.8216C15.2394 28.8101 15.1526 28.7982 15.0632 28.786C13.9737 28.6374 12.5857 28.4598 11.1412 28.4598H10.9422C9.49661 28.4598 8.1075 28.6406 7.01889 28.7905C6.94045 28.8013 6.86397 28.8119 6.78942 28.8222C6.33516 28.8851 5.95236 28.9381 5.63118 28.9702C5.44658 28.9887 5.30065 28.9983 5.18791 28.9998C5.08649 29.0012 5.04018 28.9954 5.03149 28.9943C4.09047 28.7687 3.49478 28.0079 3.22612 27.0729C3.12369 26.2261 3.37706 25.4724 3.8651 24.7148C4.32373 24.0028 4.93876 23.3594 5.59709 22.6707C5.68555 22.5782 5.77479 22.4848 5.86453 22.3904L5.88975 22.3638L5.91296 22.3355C6.53862 21.5723 7.09873 20.8776 7.67235 20.1661C7.991 19.7709 8.31381 19.3705 8.65435 18.9503C9.14603 18.3564 9.64376 17.9062 10.1543 17.722L10.1633 17.7187L10.1723 17.7153C10.2417 17.6887 10.3067 17.6705 10.3675 17.6588L10.3676 17.6589L10.378 17.6568C10.5506 17.6218 10.7478 17.6185 11.0528 17.6185C11.351 17.6185 11.5607 17.6209 11.7374 17.6493C11.7952 17.661 11.8567 17.6786 11.9222 17.7037L11.9312 17.7071L11.9402 17.7104C12.4547 17.896 12.9652 18.352 13.4365 18.9342L13.4365 18.9343L13.4405 18.9391C14.0617 19.6969 14.6123 20.3798 15.1819 21.0863C15.5026 21.4841 15.8293 21.8893 16.178 22.3195Z" fill="#E5E5E5" stroke="#E5E5E5" stroke-width="2"/>
<path d="M32.0976 22.619L35.9408 8.68051H41.715L34.7362 29.3684H29.459L22.4802 8.68051H28.2545L32.0976 22.619Z" fill="#E5E5E5"/>
<path d="M53.4165 29.7508C50.3828 29.7508 47.9099 28.8203 45.9979 26.9593C44.0986 25.0983 43.149 22.619 43.149 19.5216V18.9862C43.149 16.9085 43.5505 15.0539 44.3536 13.4223C45.1566 11.778 46.2911 10.516 47.757 9.63651C49.2356 8.74424 50.9181 8.29811 52.8046 8.29811C55.6344 8.29811 57.8587 9.19038 59.4776 10.9749C61.1091 12.7595 61.9249 15.2897 61.9249 18.5656V20.8218H48.7512C48.9296 22.1729 49.465 23.2564 50.3573 24.0722C51.2623 24.888 52.4031 25.2958 53.7798 25.2958C55.9085 25.2958 57.5719 24.5247 58.7701 22.9823L61.4852 26.0224C60.6566 27.1951 59.5349 28.1129 58.12 28.7757C56.7051 29.4258 55.1373 29.7508 53.4165 29.7508ZM52.7855 12.7722C51.6893 12.7722 50.797 13.1419 50.1087 13.8812C49.4331 14.6205 48.9998 15.6785 48.8086 17.0551H56.4948V16.6153C56.4693 15.3917 56.1379 14.4484 55.5006 13.7856C54.8632 13.11 53.9582 12.7722 52.7855 12.7722Z" fill="#E5E5E5"/>
<path d="M71.6953 3.59457V8.68051H75.2325V12.734H71.6953V23.0588C71.6953 23.8236 71.8419 24.3717 72.135 24.7031C72.4282 25.0345 72.9891 25.2002 73.8176 25.2002C74.4294 25.2002 74.9712 25.1556 75.4428 25.0664V29.2537C74.3593 29.5851 73.244 29.7508 72.0968 29.7508C68.2218 29.7508 66.2461 27.7942 66.1696 23.881V12.734H63.1486V8.68051H66.1696V3.59457H71.6953Z" fill="#E5E5E5"/>
<path d="M96.9529 19.2157C96.9529 22.5298 96.2454 25.1174 94.8306 26.9784C93.4157 28.8267 91.4399 29.7508 88.9033 29.7508C86.6599 29.7508 84.869 28.8904 83.5306 27.1696L83.282 29.3684H78.3108V0H83.8365V10.5352C85.1112 9.04379 86.7874 8.29811 88.8651 8.29811C91.3889 8.29811 93.3647 9.22862 94.7923 11.0896C96.2327 12.9379 96.9529 15.5446 96.9529 18.9097V19.2157ZM91.4272 18.8141C91.4272 16.7237 91.0958 15.2005 90.4329 14.2444C89.7701 13.2757 88.7822 12.7913 87.4693 12.7913C85.7103 12.7913 84.4993 13.5115 83.8365 14.9519V23.1162C84.5121 24.5693 85.7358 25.2958 87.5076 25.2958C89.2921 25.2958 90.4648 24.4163 91.0257 22.6573C91.2933 21.816 91.4272 20.535 91.4272 18.8141Z" fill="#E5E5E5"/>
<path d="M99.515 18.8333C99.515 16.781 99.9101 14.9519 100.7 13.3458C101.491 11.7397 102.625 10.4969 104.104 9.61739C105.595 8.73787 107.322 8.29811 109.285 8.29811C112.077 8.29811 114.352 9.15214 116.111 10.8602C117.883 12.5683 118.871 14.8882 119.075 17.8199L119.113 19.2348C119.113 22.4087 118.227 24.9581 116.455 26.8828C114.684 28.7948 112.306 29.7508 109.324 29.7508C106.341 29.7508 103.957 28.7948 102.173 26.8828C100.401 24.9708 99.515 22.3705 99.515 19.0818V18.8333ZM105.041 19.2348C105.041 21.1978 105.41 22.7019 106.15 23.7471C106.889 24.7796 107.947 25.2958 109.324 25.2958C110.662 25.2958 111.707 24.786 112.459 23.7662C113.211 22.7338 113.587 21.0894 113.587 18.8333C113.587 16.9085 113.211 15.4171 112.459 14.3592C111.707 13.3012 110.649 12.7722 109.285 12.7722C107.934 12.7722 106.889 13.3012 106.15 14.3592C105.41 15.4044 105.041 17.0296 105.041 19.2348Z" fill="#E5E5E5"/>
<path d="M121.656 18.8333C121.656 16.781 122.051 14.9519 122.841 13.3458C123.632 11.7397 124.766 10.4969 126.245 9.61739C127.736 8.73787 129.463 8.29811 131.426 8.29811C134.218 8.29811 136.493 9.15214 138.252 10.8602C140.024 12.5683 141.012 14.8882 141.216 17.8199L141.254 19.2348C141.254 22.4087 140.368 24.9581 138.596 26.8828C136.825 28.7948 134.447 29.7508 131.465 29.7508C128.482 29.7508 126.098 28.7948 124.314 26.8828C122.542 24.9708 121.656 22.3705 121.656 19.0818V18.8333ZM127.182 19.2348C127.182 21.1978 127.551 22.7019 128.291 23.7471C129.03 24.7796 130.088 25.2958 131.465 25.2958C132.803 25.2958 133.848 24.786 134.6 23.7662C135.352 22.7338 135.728 21.0894 135.728 18.8333C135.728 16.9085 135.352 15.4171 134.6 14.3592C133.848 13.3012 132.79 12.7722 131.426 12.7722C130.075 12.7722 129.03 13.3012 128.291 14.3592C127.551 15.4044 127.182 17.0296 127.182 19.2348Z" fill="#E5E5E5"/>
<path d="M152.172 21.0703L150.183 23.0588V29.3684H144.657V0H150.183V16.2712L151.254 14.8945L156.55 8.68051H163.185L155.709 17.3037L163.835 29.3684H157.487L152.172 21.0703Z" fill="#E5E5E5"/>
</svg>
